<svg id="svg" version="1.1" width="400" height="400" viewBox="0 0 400 400" xmlns="http://www.w3.org/2000/svg" xmlns:xlink="http://www.w3.org/1999/xlink"><g id="svgg"><path id="path0" d="M190.431 77.683 C 136.170 84.498,103.021 139.085,122.027 190.326 C 139.204 236.638,196.943 259.032,238.482 235.493 L 240.727 234.221 242.613 235.339 C 250.897 240.251,263.976 242.989,272.460 241.586 L 273.628 241.393 271.553 239.452 C 266.837 235.041,263.375 228.171,262.057 220.611 C 261.397 216.827,261.403 216.768,262.631 215.392 C 285.100 190.215,289.574 151.094,273.475 120.574 C 257.915 91.075,223.857 73.485,190.431 77.683 M209.952 110.978 C 229.406 115.198,243.676 129.410,248.088 148.963 L 248.916 152.632 249.125 180.223 C 249.302 203.604,249.409 208.096,249.826 209.655 C 250.413 211.850,250.606 211.689,247.049 211.961 C 237.142 212.719,225.850 208.503,221.906 202.574 C 221.434 201.865,221.341 201.840,220.823 202.290 C 215.034 207.306,202.032 210.380,191.455 209.233 C 154.126 205.186,135.041 162.891,156.420 131.590 C 167.535 115.315,190.024 106.656,209.952 110.978 M194.099 136.208 C 178.559 139.057,169.638 155.894,176.080 170.219 C 183.828 187.447,207.932 189.435,218.322 173.702 C 229.867 156.220,214.520 132.465,194.099 136.208 M274.641 268.900 C 274.641 273.110,274.569 276.555,274.482 276.555 C 274.394 276.555,273.778 276.011,273.113 275.345 C 270.139 272.372,264.035 271.489,259.883 273.431 C 249.519 278.280,249.499 295.959,259.852 300.699 C 264.536 302.843,270.599 301.897,273.440 298.577 C 274.894 296.879,275.036 296.940,274.909 299.203 L 274.801 301.118 278.549 301.117 L 282.297 301.116 282.297 281.180 L 282.297 261.244 278.469 261.244 L 274.641 261.244 274.641 268.900 M105.571 263.344 C 105.226 264.148,104.944 264.857,104.944 264.920 C 104.944 264.983,103.135 269.600,100.925 275.181 C 98.714 280.761,96.498 286.404,96.001 287.719 C 95.503 289.035,94.155 292.552,93.004 295.534 C 91.852 298.517,90.910 300.993,90.910 301.037 C 90.909 301.081,92.900 301.116,95.333 301.116 L 99.756 301.116 100.877 298.166 C 101.493 296.543,102.096 294.892,102.216 294.498 L 102.435 293.780 110.818 293.780 L 119.201 293.780 120.561 297.448 L 121.920 301.116 126.521 301.116 L 131.123 301.116 130.744 300.408 C 130.535 300.018,129.324 296.968,128.052 293.630 C 126.781 290.291,124.782 285.120,123.610 282.137 C 122.439 279.155,120.260 273.557,118.768 269.697 C 115.399 260.985,116.314 261.882,110.795 261.882 L 106.197 261.882 105.571 263.344 M225.529 262.630 C 225.380 263.008,223.510 267.767,221.373 273.206 C 216.832 284.762,211.600 298.217,210.992 299.904 L 210.566 301.083 215.001 301.180 L 219.435 301.276 220.802 297.608 L 222.169 293.939 230.579 293.939 L 238.988 293.939 240.334 297.562 L 241.680 301.185 246.108 301.134 C 248.544 301.107,250.565 301.056,250.600 301.021 C 250.668 300.951,249.709 298.482,241.342 277.188 C 238.274 269.379,235.666 262.734,235.546 262.423 C 235.178 261.464,225.911 261.656,225.529 262.630 M135.512 266.268 C 135.483 267.101,135.447 268.931,135.433 270.335 L 135.407 272.887 133.254 272.981 L 131.100 273.075 131.100 275.917 L 131.100 278.759 133.254 278.853 L 135.407 278.947 135.566 287.560 C 135.746 297.249,135.863 297.767,138.330 299.801 C 140.651 301.714,145.516 302.378,149.145 301.277 C 151.586 300.536,151.533 300.656,150.813 297.558 L 150.172 294.797 149.100 295.246 C 144.347 297.231,143.222 295.430,143.222 285.837 L 143.222 278.788 146.730 278.788 L 150.239 278.788 150.239 275.917 L 150.239 273.046 146.730 273.046 L 143.222 273.046 143.222 268.900 L 143.222 264.753 139.394 264.753 L 135.566 264.753 135.512 266.268 M157.895 268.900 L 157.895 273.046 155.821 273.046 L 153.748 273.046 153.748 275.902 L 153.748 278.757 155.742 278.852 L 157.735 278.947 157.895 287.400 C 158.072 296.816,158.319 297.892,160.765 299.951 C 162.828 301.686,168.019 302.305,171.633 301.247 C 173.981 300.559,173.977 300.567,173.353 297.722 C 172.669 294.598,172.730 294.690,171.685 295.235 C 170.141 296.041,167.873 295.832,166.829 294.789 C 165.640 293.600,165.497 292.450,165.614 285.008 L 165.710 278.947 169.298 278.857 L 172.887 278.767 172.887 275.917 L 172.887 273.067 169.298 272.977 L 165.710 272.887 165.620 268.820 L 165.531 264.753 161.713 264.753 L 157.895 264.753 157.895 268.900 M113.314 278.225 C 114.532 281.429,115.724 284.589,115.963 285.247 L 116.399 286.443 110.991 286.443 C 107.776 286.443,105.582 286.320,105.582 286.139 C 105.582 285.972,105.723 285.506,105.895 285.103 C 106.148 284.512,109.961 274.134,110.547 272.442 C 110.799 271.714,111.004 272.142,113.314 278.225 M233.480 279.353 C 234.891 283.081,236.045 286.202,236.045 286.287 C 236.045 286.373,233.589 286.443,230.588 286.443 C 226.361 286.443,225.162 286.354,225.270 286.045 C 227.123 280.737,230.508 272.166,230.682 272.341 C 230.811 272.469,232.070 275.625,233.480 279.353 M187.593 272.913 C 174.674 276.387,172.741 294.128,184.627 300.128 C 196.271 306.006,209.504 297.372,207.719 285.062 C 206.386 275.873,197.202 270.329,187.593 272.913 M294.665 272.880 C 286.368 275.164,285.106 285.118,292.702 288.374 C 293.461 288.699,295.755 289.426,297.800 289.988 C 302.822 291.370,304.291 292.816,302.712 294.823 C 300.956 297.056,295.785 296.586,291.779 293.829 C 289.927 292.556,290.237 292.429,288.344 295.235 C 286.439 298.058,286.424 298.010,289.726 299.628 C 299.833 304.580,310.385 301.193,310.360 293.005 C 310.344 288.062,308.139 286.059,300.437 283.993 C 296.331 282.892,295.249 282.206,295.117 280.619 C 294.853 277.467,301.231 277.285,305.497 280.322 L 306.460 281.008 308.075 278.470 L 309.690 275.933 308.832 275.329 C 305.177 272.754,299.001 271.687,294.665 272.880 M194.515 279.164 C 199.782 280.491,201.940 288.420,198.217 292.770 C 194.266 297.385,186.542 295.666,184.835 289.793 C 182.953 283.319,188.188 277.571,194.515 279.164 M269.570 279.157 C 276.305 281.447,276.392 292.846,269.691 295.058 C 264.603 296.737,260.110 292.982,260.143 287.081 C 260.176 281.168,264.585 277.462,269.570 279.157 " stroke="none" fill="#5c5f3c" fill-rule="evenodd"></path><path id="path1" d="M0.000 200.000 L 0.000 400.000 200.000 400.000 L 400.000 400.000 400.000 200.000 L 400.000 0.000 200.000 0.000 L 0.000 0.000 0.000 200.000 M208.477 77.217 C 259.452 82.234,293.627 131.242,280.861 181.021 C 277.720 193.269,270.647 206.792,262.881 215.398 C 259.818 218.791,265.266 233.370,271.838 239.369 C 274.734 242.011,274.856 241.946,267.039 241.946 C 257.236 241.946,250.398 240.171,242.359 235.542 L 240.859 234.678 235.980 237.085 C 187.690 260.911,127.797 229.929,117.736 175.917 C 107.573 121.360,153.161 71.773,208.477 77.217 M190.631 110.869 C 146.589 117.718,132.254 173.471,167.745 199.881 C 182.949 211.194,207.062 212.299,220.394 202.295 L 221.490 201.472 222.148 202.411 C 226.491 208.598,237.513 212.606,247.591 211.662 L 249.985 211.438 249.502 209.626 C 249.096 208.106,248.985 203.381,248.807 180.223 L 248.595 152.632 247.770 148.963 C 241.870 122.732,217.750 106.652,190.631 110.869 M204.295 136.387 C 218.659 140.245,226.367 155.856,220.748 169.708 C 216.206 180.903,203.623 187.118,192.026 183.895 C 190.359 183.431,188.684 183.026,188.304 182.993 C 187.924 182.961,187.672 182.875,187.745 182.803 C 187.818 182.730,186.929 182.102,185.770 181.408 C 174.631 174.738,170.546 161.054,176.227 149.442 C 181.311 139.047,193.352 133.447,204.295 136.387 M282.616 281.180 L 282.616 301.435 278.628 301.435 L 274.641 301.435 274.641 299.521 L 274.641 297.606 273.465 298.907 C 266.595 306.512,253.828 301.007,251.949 289.631 C 249.791 276.559,264.210 266.613,273.126 275.024 L 274.322 276.152 274.322 268.538 L 274.322 260.925 278.469 260.925 L 282.616 260.925 282.616 281.180 M116.590 263.397 C 116.902 264.230,119.725 271.515,122.864 279.585 C 126.002 287.656,129.139 295.725,129.835 297.517 C 130.531 299.310,131.100 300.929,131.100 301.114 C 131.100 301.341,129.556 301.423,126.410 301.364 L 121.720 301.276 120.510 298.086 C 119.844 296.332,119.300 294.715,119.299 294.492 C 119.298 294.174,117.523 294.106,110.971 294.173 L 102.645 294.258 101.338 297.847 L 100.031 301.435 95.289 301.435 L 90.547 301.435 90.763 300.718 C 91.035 299.812,96.638 285.234,101.794 272.017 L 105.742 261.898 110.882 261.890 L 116.022 261.882 116.590 263.397 M237.007 265.311 C 242.508 279.293,251.037 301.188,251.037 301.327 C 251.037 301.396,248.864 301.412,246.209 301.364 L 241.382 301.276 240.069 297.693 L 238.756 294.109 230.581 294.104 L 222.406 294.099 221.678 296.093 C 221.277 297.189,220.675 298.840,220.340 299.761 L 219.731 301.435 214.969 301.435 C 212.350 301.435,210.207 301.370,210.207 301.290 C 210.207 301.183,223.306 267.422,225.218 262.600 C 225.496 261.897,225.611 261.882,230.580 261.882 L 235.658 261.882 237.007 265.311 M143.470 268.660 L 143.560 272.727 147.059 272.727 L 150.558 272.727 150.558 275.917 L 150.558 279.107 147.049 279.107 L 143.541 279.107 143.541 286.308 L 143.541 293.510 144.473 294.442 C 145.558 295.527,147.270 295.691,149.182 294.892 C 149.817 294.627,150.365 294.447,150.400 294.493 C 151.021 295.325,151.718 300.376,151.261 300.727 C 148.178 303.094,140.662 302.415,137.755 299.507 C 135.454 297.207,135.247 296.164,135.247 286.864 L 135.247 279.107 133.003 279.107 L 130.758 279.107 130.850 275.997 L 130.941 272.887 133.094 272.792 L 135.247 272.698 135.247 268.740 L 135.247 264.782 137.400 264.662 C 138.585 264.597,140.415 264.554,141.467 264.568 L 143.381 264.593 143.470 268.660 M165.799 268.662 L 165.888 272.727 169.547 272.727 L 173.206 272.727 173.206 275.917 L 173.206 279.107 169.537 279.107 L 165.869 279.107 165.871 285.566 C 165.873 292.439,166.116 294.108,167.229 294.887 C 168.119 295.511,170.543 295.512,171.738 294.889 C 172.898 294.284,172.846 294.218,173.551 297.193 C 174.412 300.824,174.463 300.679,172.056 301.423 C 166.177 303.238,160.800 301.662,158.592 297.477 L 157.735 295.853 157.636 287.480 L 157.537 279.107 155.483 279.107 L 153.429 279.107 153.429 275.917 L 153.429 272.727 155.502 272.727 L 157.576 272.727 157.576 268.758 L 157.576 264.788 159.091 264.656 C 159.924 264.583,161.754 264.540,163.158 264.561 L 165.710 264.597 165.799 268.662 M195.889 272.408 C 204.165 273.942,209.585 282.055,207.838 290.293 C 204.227 307.328,177.375 305.573,176.470 288.243 C 175.918 277.674,184.880 270.366,195.889 272.408 M303.013 272.583 C 304.964 273.043,308.259 274.482,309.504 275.419 C 310.040 275.822,309.961 276.029,308.285 278.600 L 306.492 281.350 305.513 280.653 C 301.320 277.667,295.375 277.691,295.375 280.694 C 295.375 281.991,296.229 282.486,300.735 283.799 C 309.805 286.443,312.813 290.702,309.926 296.810 C 307.092 302.804,296.152 303.995,288.200 299.176 C 286.071 297.885,286.076 298.160,288.118 295.060 C 290.051 292.127,289.875 292.201,291.779 293.510 C 295.865 296.322,301.482 296.764,302.632 294.364 C 303.549 292.452,302.578 291.665,297.605 290.284 C 290.241 288.241,287.875 286.304,287.489 282.006 C 286.859 274.987,294.230 270.513,303.013 272.583 M108.459 279.023 C 107.181 282.490,106.067 285.506,105.984 285.726 C 105.867 286.034,106.961 286.124,110.811 286.124 C 113.549 286.124,115.789 286.002,115.789 285.852 C 115.789 285.591,111.027 272.974,110.864 272.803 C 110.820 272.757,109.738 275.556,108.459 279.023 M228.013 279.506 L 225.571 285.965 228.097 286.058 C 229.486 286.109,231.748 286.109,233.125 286.058 L 235.628 285.965 233.208 279.506 C 231.876 275.953,230.712 273.046,230.621 273.046 C 230.529 273.046,229.356 275.953,228.013 279.506 M189.785 279.596 C 185.992 280.765,183.877 285.402,185.146 289.765 C 187.277 297.096,197.896 296.754,199.685 289.297 C 201.217 282.913,195.906 277.709,189.785 279.596 M264.215 279.883 C 261.437 281.177,260.104 283.943,260.357 287.889 C 260.996 297.836,274.348 297.387,274.394 287.416 C 274.423 280.976,269.575 277.388,264.215 279.883 " stroke="none" fill="#fbfbfb" fill-rule="evenodd"></path><path id="path2" d="M234.769 124.561 C 235.364 125.175,235.923 125.678,236.010 125.678 C 236.098 125.678,235.683 125.175,235.088 124.561 C 234.493 123.947,233.934 123.445,233.846 123.445 C 233.758 123.445,234.174 123.947,234.769 124.561 M248.953 176.077 C 248.953 186.515,248.994 190.785,249.043 185.566 C 249.092 180.347,249.092 171.806,249.043 166.587 C 248.994 161.368,248.953 165.638,248.953 176.077 M161.709 194.976 C 163.031 196.384,163.317 196.638,163.317 196.398 C 163.317 196.347,162.636 195.665,161.802 194.883 L 160.287 193.461 161.709 194.976 M248.923 199.203 C 248.924 201.132,248.976 201.881,249.040 200.866 C 249.103 199.850,249.103 198.271,249.039 197.357 C 248.974 196.442,248.922 197.273,248.923 199.203 M195.779 209.482 C 196.353 209.553,197.214 209.551,197.693 209.478 C 198.172 209.406,197.703 209.347,196.651 209.349 C 195.598 209.351,195.206 209.411,195.779 209.482 M199.442 245.211 C 200.275 245.276,201.639 245.276,202.472 245.211 C 203.305 245.145,202.624 245.091,200.957 245.091 C 199.290 245.091,198.608 245.145,199.442 245.211 M274.476 261.324 C 274.223 262.021,274.152 276.556,274.402 276.555 C 274.533 276.555,274.641 273.115,274.641 268.910 L 274.641 261.264 278.389 261.163 L 282.137 261.062 278.379 260.994 C 275.611 260.943,274.583 261.030,274.476 261.324 M157.574 269.443 C 157.487 271.409,157.529 272.903,157.667 272.765 C 157.805 272.626,157.876 271.018,157.825 269.191 L 157.732 265.869 157.574 269.443 M153.558 273.169 C 153.465 273.412,153.445 274.238,153.513 275.003 C 153.637 276.395,153.637 276.395,153.692 274.739 L 153.748 273.083 155.104 272.961 L 156.459 272.839 155.094 272.783 C 154.183 272.746,153.671 272.875,153.558 273.169 M168.026 272.953 C 168.423 273.029,168.997 273.026,169.302 272.946 C 169.607 272.867,169.282 272.804,168.581 272.808 C 167.879 272.811,167.629 272.877,168.026 272.953 M157.713 286.284 C 157.713 290.319,157.758 291.926,157.814 289.854 C 157.870 287.783,157.870 284.482,157.814 282.518 C 157.758 280.554,157.712 282.249,157.713 286.284 M287.474 281.340 C 287.474 281.954,287.540 282.205,287.620 281.898 C 287.700 281.591,287.700 281.089,287.620 280.781 C 287.540 280.474,287.474 280.726,287.474 281.340 M176.482 287.081 C 176.482 287.871,176.545 288.194,176.621 287.799 C 176.697 287.404,176.697 286.758,176.621 286.364 C 176.545 285.969,176.482 286.292,176.482 287.081 " stroke="none" fill="#b0b19e" fill-rule="evenodd"></path><path id="path3" d="M199.442 77.106 C 200.100 77.175,201.176 77.175,201.834 77.106 C 202.492 77.038,201.954 76.981,200.638 76.981 C 199.322 76.981,198.784 77.038,199.442 77.106 M116.514 157.257 C 116.514 158.046,116.577 158.369,116.653 157.974 C 116.729 157.580,116.729 156.934,116.653 156.539 C 116.577 156.144,116.514 156.467,116.514 157.257 M243.939 212.033 C 244.510 212.104,245.443 212.104,246.013 212.033 C 246.583 211.962,246.116 211.904,244.976 211.904 C 243.836 211.904,243.369 211.962,243.939 212.033 M135.338 266.188 C 135.341 267.065,135.403 267.386,135.476 266.902 C 135.549 266.417,135.547 265.699,135.472 265.307 C 135.396 264.914,135.336 265.311,135.338 266.188 M165.665 268.262 C 165.665 269.928,165.719 270.610,165.785 269.777 C 165.850 268.943,165.850 267.580,165.785 266.746 C 165.719 265.913,165.665 266.595,165.665 268.262 M264.833 272.309 C 265.140 272.389,265.642 272.389,265.949 272.309 C 266.256 272.229,266.005 272.163,265.391 272.163 C 264.777 272.163,264.526 272.229,264.833 272.309 M133.413 272.947 C 133.720 273.027,134.222 273.027,134.530 272.947 C 134.837 272.867,134.585 272.801,133.971 272.801 C 133.357 272.801,133.106 272.867,133.413 272.947 M146.815 272.956 C 147.299 273.029,148.017 273.028,148.409 272.952 C 148.802 272.876,148.405 272.816,147.528 272.819 C 146.651 272.821,146.330 272.883,146.815 272.956 M150.304 275.826 L 150.239 278.766 146.970 278.869 L 143.700 278.972 146.980 279.040 C 150.815 279.118,150.628 279.303,150.477 275.571 L 150.369 272.887 150.304 275.826 M131.823 279.017 C 132.307 279.090,133.025 279.088,133.417 279.012 C 133.810 278.937,133.413 278.877,132.536 278.879 C 131.659 278.882,131.338 278.943,131.823 279.017 M167.874 279.024 C 168.890 279.087,170.469 279.087,171.383 279.023 C 172.298 278.958,171.467 278.906,169.537 278.907 C 167.608 278.908,166.859 278.960,167.874 279.024 M165.686 285.805 C 165.686 289.577,165.732 291.120,165.788 289.234 C 165.845 287.348,165.845 284.262,165.788 282.376 C 165.732 280.490,165.686 282.033,165.686 285.805 M135.384 286.603 C 135.384 290.638,135.430 292.245,135.486 290.173 C 135.541 288.102,135.541 284.801,135.485 282.837 C 135.429 280.873,135.384 282.568,135.384 286.603 M184.444 287.081 C 184.444 287.695,184.510 287.947,184.590 287.640 C 184.670 287.333,184.670 286.830,184.590 286.523 C 184.510 286.216,184.444 286.467,184.444 287.081 M298.166 296.238 C 298.561 296.314,299.207 296.314,299.601 296.238 C 299.996 296.162,299.673 296.100,298.884 296.100 C 298.094 296.100,297.771 296.162,298.166 296.238 M179.904 296.751 C 179.904 296.805,180.371 297.272,180.941 297.787 L 181.978 298.724 181.041 297.687 C 180.168 296.721,179.904 296.504,179.904 296.751 M274.732 299.362 C 274.735 300.239,274.797 300.560,274.870 300.075 C 274.943 299.590,274.941 298.873,274.866 298.480 C 274.790 298.088,274.730 298.485,274.732 299.362 M97.373 301.345 C 97.858 301.419,98.575 301.417,98.968 301.341 C 99.360 301.265,98.963 301.205,98.086 301.208 C 97.209 301.210,96.888 301.272,97.373 301.345 M122.408 301.342 C 122.803 301.418,123.449 301.418,123.844 301.342 C 124.238 301.266,123.915 301.203,123.126 301.203 C 122.337 301.203,122.014 301.266,122.408 301.342 M127.520 301.350 C 128.271 301.418,129.419 301.417,130.072 301.348 C 130.725 301.280,130.112 301.225,128.708 301.226 C 127.305 301.227,126.770 301.283,127.520 301.350 M211.244 301.345 C 211.726 301.418,212.516 301.418,212.998 301.345 C 213.481 301.272,213.086 301.212,212.121 301.212 C 211.156 301.212,210.762 301.272,211.244 301.345 M248.724 301.342 C 249.119 301.418,249.765 301.418,250.159 301.342 C 250.554 301.266,250.231 301.203,249.442 301.203 C 248.652 301.203,248.329 301.266,248.724 301.342 M276.160 301.342 C 276.557 301.418,277.131 301.415,277.436 301.336 C 277.741 301.256,277.416 301.193,276.715 301.197 C 276.013 301.200,275.763 301.266,276.160 301.342 M280.303 301.342 C 280.698 301.418,281.344 301.418,281.738 301.342 C 282.133 301.266,281.810 301.203,281.021 301.203 C 280.231 301.203,279.908 301.266,280.303 301.342 M166.746 301.980 C 167.141 302.056,167.787 302.056,168.182 301.980 C 168.577 301.903,168.254 301.841,167.464 301.841 C 166.675 301.841,166.352 301.903,166.746 301.980 M297.840 301.985 C 298.406 302.055,299.411 302.056,300.073 301.987 C 300.734 301.918,300.271 301.860,299.043 301.859 C 297.815 301.858,297.274 301.914,297.840 301.985 " stroke="none" fill="#949884" fill-rule="evenodd"></path><path id="path4" d="M259.330 101.276 C 259.925 101.890,260.484 102.392,260.572 102.392 C 260.659 102.392,260.244 101.890,259.649 101.276 C 259.054 100.662,258.495 100.159,258.408 100.159 C 258.320 100.159,258.735 100.662,259.330 101.276 M140.334 101.994 L 139.234 103.190 140.431 102.091 C 141.089 101.486,141.627 100.948,141.627 100.894 C 141.627 100.651,141.357 100.880,140.334 101.994 M197.857 110.283 C 198.695 110.349,199.987 110.348,200.727 110.281 C 201.468 110.214,200.781 110.160,199.203 110.161 C 197.624 110.162,197.018 110.217,197.857 110.283 M180.682 142.982 L 179.745 144.019 180.781 143.082 C 181.352 142.567,181.818 142.100,181.818 142.046 C 181.818 141.799,181.555 142.016,180.682 142.982 M283.334 156.459 C 283.338 157.161,283.403 157.411,283.479 157.014 C 283.555 156.617,283.553 156.043,283.473 155.738 C 283.393 155.433,283.330 155.758,283.334 156.459 M222.403 158.533 C 222.403 159.147,222.468 159.398,222.548 159.091 C 222.629 158.784,222.629 158.281,222.548 157.974 C 222.468 157.667,222.403 157.919,222.403 158.533 M173.620 160.766 C 173.620 161.730,173.680 162.125,173.753 161.643 C 173.826 161.160,173.826 160.371,173.753 159.888 C 173.680 159.406,173.620 159.801,173.620 160.766 M116.195 160.766 C 116.195 161.555,116.258 161.878,116.334 161.483 C 116.410 161.089,116.410 160.443,116.334 160.048 C 116.258 159.653,116.195 159.976,116.195 160.766 M222.403 162.041 C 222.403 162.656,222.468 162.907,222.548 162.600 C 222.629 162.293,222.629 161.790,222.548 161.483 C 222.468 161.176,222.403 161.427,222.403 162.041 M283.340 163.636 C 283.340 164.426,283.403 164.749,283.479 164.354 C 283.555 163.959,283.555 163.313,283.479 162.919 C 283.403 162.524,283.340 162.847,283.340 163.636 M140.116 264.663 C 140.601 264.736,141.319 264.734,141.711 264.658 C 142.103 264.583,141.707 264.523,140.829 264.525 C 139.952 264.527,139.631 264.589,140.116 264.663 M161.317 264.664 C 161.883 264.734,162.888 264.736,163.550 264.667 C 164.211 264.598,163.748 264.540,162.520 264.538 C 161.292 264.537,160.750 264.594,161.317 264.664 M130.856 274.003 C 130.856 274.617,130.921 274.868,131.001 274.561 C 131.082 274.254,131.082 273.752,131.001 273.445 C 130.921 273.138,130.856 273.389,130.856 274.003 M130.862 277.990 C 130.865 278.692,130.931 278.942,131.007 278.545 C 131.083 278.148,131.081 277.574,131.001 277.269 C 130.921 276.964,130.858 277.289,130.862 277.990 M298.325 278.370 C 298.632 278.450,299.135 278.450,299.442 278.370 C 299.749 278.290,299.498 278.224,298.884 278.224 C 298.270 278.224,298.018 278.290,298.325 278.370 M251.773 287.241 C 251.775 288.293,251.835 288.686,251.906 288.112 C 251.977 287.539,251.975 286.678,251.903 286.198 C 251.830 285.719,251.772 286.188,251.773 287.241 M107.576 286.357 C 108.234 286.426,109.310 286.426,109.968 286.357 C 110.626 286.288,110.088 286.232,108.772 286.232 C 107.456 286.232,106.918 286.288,107.576 286.357 M113.636 286.344 C 113.943 286.425,114.446 286.425,114.753 286.344 C 115.060 286.264,114.809 286.198,114.195 286.198 C 113.581 286.198,113.329 286.264,113.636 286.344 M227.498 286.361 C 228.675 286.422,230.684 286.422,231.964 286.362 C 233.243 286.301,232.281 286.251,229.825 286.250 C 227.368 286.250,226.321 286.299,227.498 286.361 " stroke="none" fill="#d8d8cd" fill-rule="evenodd"></path><path id="path5" d="M197.847 135.786 C 198.154 135.866,198.656 135.866,198.963 135.786 C 199.270 135.706,199.019 135.640,198.405 135.640 C 197.791 135.640,197.540 135.706,197.847 135.786 M283.352 159.968 C 283.354 161.021,283.414 161.413,283.485 160.840 C 283.556 160.266,283.554 159.405,283.482 158.926 C 283.409 158.446,283.351 158.915,283.352 159.968 M282.388 263.636 C 282.390 264.514,282.452 264.835,282.526 264.350 C 282.599 263.865,282.597 263.147,282.521 262.755 C 282.445 262.362,282.385 262.759,282.388 263.636 M282.418 269.059 C 282.419 271.164,282.471 271.984,282.533 270.881 C 282.596 269.777,282.595 268.055,282.532 267.053 C 282.469 266.051,282.418 266.954,282.418 269.059 M173.002 275.917 C 173.002 277.584,173.056 278.266,173.121 277.432 C 173.187 276.599,173.187 275.235,173.121 274.402 C 173.056 273.569,173.002 274.250,173.002 275.917 M282.392 274.641 C 282.392 275.606,282.452 276.001,282.525 275.518 C 282.598 275.036,282.598 274.246,282.525 273.764 C 282.452 273.281,282.392 273.676,282.392 274.641 M282.406 280.861 C 282.407 282.265,282.463 282.799,282.531 282.049 C 282.598 281.299,282.597 280.150,282.529 279.497 C 282.460 278.844,282.405 279.458,282.406 280.861 M282.401 293.939 C 282.403 295.167,282.460 295.631,282.529 294.969 C 282.598 294.307,282.597 293.302,282.527 292.736 C 282.456 292.170,282.400 292.711,282.401 293.939 M107.275 294.018 C 109.522 294.073,113.111 294.073,115.250 294.018 C 117.389 293.963,115.550 293.918,111.164 293.918 C 106.778 293.918,105.028 293.963,107.275 294.018 M227.033 294.018 C 229.183 294.073,232.699 294.073,234.848 294.018 C 236.998 293.963,235.239 293.918,230.941 293.918 C 226.643 293.918,224.884 293.963,227.033 294.018 " stroke="none" fill="#c4c4bc" fill-rule="evenodd"></path><path id="path6" d="M248.878 155.981 C 248.878 156.595,248.943 156.846,249.024 156.539 C 249.104 156.232,249.104 155.730,249.024 155.423 C 248.943 155.116,248.878 155.367,248.878 155.981 M147.480 160.128 C 147.480 161.619,147.535 162.229,147.602 161.483 C 147.669 160.738,147.669 159.518,147.602 158.772 C 147.535 158.026,147.480 158.636,147.480 160.128 M197.368 184.601 C 197.939 184.672,198.872 184.672,199.442 184.601 C 200.012 184.530,199.545 184.472,198.405 184.472 C 197.265 184.472,196.798 184.530,197.368 184.601 M223.604 204.625 C 224.200 205.239,224.758 205.742,224.846 205.742 C 224.934 205.742,224.519 205.239,223.923 204.625 C 223.328 204.011,222.770 203.509,222.682 203.509 C 222.594 203.509,223.009 204.011,223.604 204.625 M266.274 242.017 C 266.847 242.088,267.708 242.087,268.188 242.014 C 268.667 241.941,268.198 241.883,267.145 241.885 C 266.093 241.887,265.700 241.946,266.274 242.017 M135.343 271.132 C 135.343 272.097,135.403 272.492,135.476 272.010 C 135.549 271.527,135.549 270.738,135.476 270.255 C 135.403 269.773,135.343 270.167,135.343 271.132 M93.222 301.349 C 93.880 301.418,94.956 301.418,95.614 301.349 C 96.272 301.280,95.734 301.224,94.418 301.224 C 93.102 301.224,92.564 301.280,93.222 301.349 M124.801 301.336 C 125.108 301.417,125.610 301.417,125.917 301.336 C 126.224 301.256,125.973 301.190,125.359 301.190 C 124.745 301.190,124.494 301.256,124.801 301.336 M214.593 301.347 C 215.163 301.418,216.096 301.418,216.667 301.347 C 217.237 301.276,216.770 301.219,215.630 301.219 C 214.490 301.219,214.023 301.276,214.593 301.347 M245.540 301.348 C 246.113 301.419,246.975 301.417,247.454 301.344 C 247.933 301.272,247.464 301.213,246.411 301.215 C 245.359 301.217,244.967 301.277,245.540 301.348 " stroke="none" fill="#9c987c" fill-rule="evenodd"></path><path id="path7" d="M143.296 266.029 C 143.296 266.643,143.361 266.894,143.442 266.587 C 143.522 266.280,143.522 265.778,143.442 265.470 C 143.361 265.163,143.296 265.415,143.296 266.029 M143.296 269.219 C 143.296 269.833,143.361 270.084,143.442 269.777 C 143.522 269.470,143.522 268.967,143.442 268.660 C 143.361 268.353,143.296 268.604,143.296 269.219 M130.856 275.917 C 130.856 276.531,130.921 276.782,131.001 276.475 C 131.082 276.168,131.082 275.666,131.001 275.359 C 130.921 275.052,130.856 275.303,130.856 275.917 M282.377 277.352 C 282.381 278.054,282.446 278.304,282.522 277.907 C 282.599 277.510,282.596 276.936,282.516 276.631 C 282.436 276.326,282.374 276.651,282.377 277.352 M143.341 285.008 C 143.342 286.938,143.394 287.686,143.458 286.671 C 143.521 285.656,143.521 284.077,143.456 283.162 C 143.392 282.248,143.340 283.078,143.341 285.008 M282.423 287.560 C 282.423 290.016,282.473 290.979,282.534 289.699 C 282.594 288.419,282.594 286.410,282.533 285.233 C 282.472 284.057,282.422 285.104,282.423 287.560 M111.567 286.350 C 111.963 286.426,112.538 286.423,112.843 286.344 C 113.148 286.264,112.823 286.201,112.121 286.205 C 111.419 286.208,111.170 286.274,111.567 286.350 M143.313 290.431 C 143.315 291.308,143.377 291.629,143.451 291.144 C 143.524 290.659,143.522 289.941,143.446 289.549 C 143.371 289.157,143.311 289.553,143.313 290.431 M282.406 298.405 C 282.407 299.809,282.463 300.343,282.531 299.593 C 282.598 298.843,282.597 297.694,282.529 297.041 C 282.460 296.388,282.405 297.002,282.406 298.405 " stroke="none" fill="#ccccc2" fill-rule="evenodd"></path><path id="path8" d="M144.422 272.953 C 144.818 273.029,145.393 273.026,145.697 272.946 C 146.002 272.867,145.678 272.804,144.976 272.808 C 144.274 272.811,144.025 272.877,144.422 272.953 M153.503 277.193 C 153.503 277.807,153.569 278.058,153.649 277.751 C 153.729 277.444,153.729 276.942,153.649 276.635 C 153.569 276.328,153.503 276.579,153.503 277.193 " stroke="none" fill="#9c9484" fill-rule="evenodd"></path></g></svg>